# Blender v2.78 (sub 0) OBJ File: 'car.blend'
# www.blender.org
mtllib road2.mtl
o Cube.002_Cube.004
v -1.000000 0.000000 2.000000
v -1.000000 2.000000 2.000000
v -1.000000 0.000000 -2.000000
v -1.000000 2.000000 -2.000000
v 1.000000 0.000000 2.000000
v 1.000000 2.000000 2.000000
v 1.000000 0.000000 -2.000000
v 1.000000 2.000000 -2.000000
vt 5.0293 9.5058
vt 5.0293 -8.5058
vt -3.9764 -8.5058
vt -3.9764 9.5058
vt -3.9764 -8.5058
vt -3.9764 9.5058
vt 5.0293 9.5058
vt 5.0293 -8.5058
vt -3.9764 -8.5058
vt -3.9764 9.5058
vt 5.0293 9.5058
vt 5.0293 -8.5058
vt -3.9764 -8.5058
vt -3.9764 9.5058
vt 5.0293 9.5058
vt 5.0293 -8.5058
vn 1.0000 0.0000 0.0000
vn -1.0000 0.0000 0.0000
vn 0.0000 1.0000 0.0000
vn 0.0000 -1.0000 0.0000
usemtl None
s off
f 1/1/1 3/2/1 4/3/1 2/4/1
f 7/5/2 5/6/2 6/7/2 8/8/2
f 3/9/3 1/10/3 5/11/3 7/12/3
f 8/13/4 6/14/4 2/15/4 4/16/4
