# Blender v2.78 (sub 0) OBJ File: 'car.blend'
# www.blender.org
mtllib road2_2.mtl
o Cube.004_Cube.009
v -1.857435 2.857435 2.670524
v -1.857435 -0.857436 2.670524
v 1.857435 -0.857436 2.670524
v 1.857435 2.857435 2.670524
v -0.928718 0.071282 -2.901783
v -0.928718 1.928718 -2.901783
v 0.928718 0.071282 -2.901783
v 0.928718 1.928718 -2.901783
vt 0.3333 0.6667
vt 0.3333 1.0000
vt 0.6667 1.0000
vt 0.6667 0.6667
vt 0.0000 0.3333
vt 0.0000 0.6667
vt 0.3333 0.3333
vt 0.3333 0.0000
vt 0.6667 0.3333
vt 0.6667 0.0000
vt 1.0000 0.6667
vt 1.0000 0.3333
vn 0.0000 0.9864 -0.1644
vn -0.9864 0.0000 -0.1644
vn 0.0000 -0.9864 -0.1644
vn 0.0000 0.0000 -1.0000
vn 0.9864 0.0000 -0.1644
usemtl None
s off
f 6/1/1 1/2/1 4/3/1 8/4/1
f 2/5/2 1/6/2 6/1/2 5/7/2
f 2/8/3 5/7/3 7/9/3 3/10/3
f 5/7/4 6/1/4 8/4/4 7/9/4
f 7/9/5 8/4/5 4/11/5 3/12/5
