# Blender v2.78 (sub 0) OBJ File: 'car.blend'
# www.blender.org
mtllib roadobject.mtl
o Cube.001
v 271.270142 -0.691628 13.911430
v -271.270111 -0.691628 13.911433
v 271.270111 -0.691628 -13.911432
v -271.270142 -0.691628 -13.911432
v 271.270142 -0.691628 13.911430
v -271.270111 -0.691628 13.911433
v -271.270142 -0.691628 -13.911432
v 271.270111 -0.691628 -13.911432
vt 1.0000 -46.7964
vt 0.0000 -46.7964
vt 0.0000 47.7964
vt 1.0000 47.7964
vt 0.0000 47.7964
vt 1.0000 47.7964
vt 1.0000 -46.7964
vt 0.0000 -46.7964
vn 0.0000 -1.0000 0.0000
vn 0.0000 0.0000 1.0000
usemtl None
s off
f 2/1/1 4/2/1 3/3/1
f 2/1/1 3/3/1 1/4/1
f 1/4/2 3/3/2 8/5/2 5/6/2
f 4/2/2 2/1/2 6/7/2 7/8/2
f 3/3/2 4/2/2 7/8/2 8/5/2
f 2/1/2 1/4/2 5/6/2 6/7/2
# lines and faces are not supported simultaneously
# l 8 6
